PathFileType	4	(X/Y/Z)	imu.trc
DataRate	CameraRate	NumFrames	NumMarkers	Units	OrigDataRate	OrigDataStartFrame	OrigNumFrames
60	60	179	2	mm	60	1	1056
Frame#	Time	humerus	radius
X1	Y1	Z1	X2	Y2	Z2

1	0	0.022056	6.25852	0.00377772	6.27465	6.25714	0.0234611	
2	0.01	0.0219927	6.25836	0.00365292	6.27435	6.25681	0.0234014	
3	0.02	0.0218355	6.2582	0.003557	6.27435	6.25681	0.0234014	
4	0.03	0.0207248	6.25772	0.00362822	6.27339	6.25619	0.0232919	
5	0.04	0.0201153	6.2574	0.00371945	6.27309	6.25589	0.0233626	
6	0.05	0.0199168	6.25691	0.00374663	6.27314	6.25556	0.0232625	
7	0.06	0.0201879	6.25659	0.00359023	6.27337	6.25535	0.0231474	
8	0.07	0.0204871	6.2563	0.00328142	6.27355	6.25517	0.0230475	
9	0.08	0.0206778	6.25604	0.00299515	6.27359	6.25502	0.0229315	
10	0.09	0.0205888	6.2558	0.00271835	6.27336	6.25485	0.0227869	
11	0.1	0.0202216	6.25556	0.00263228	6.27224	6.25429	0.0227476	
12	0.11	0.0197101	6.25532	0.00246208	6.27154	6.25401	0.0226834	
13	0.12	0.0191577	6.25501	0.00227695	6.2711	6.25375	0.0225961	
14	0.13	0.0187489	6.25468	0.00204798	6.27077	6.25348	0.0224724	
15	0.14	0.0185162	6.25436	0.00181333	6.27072	6.25328	0.0222134	
16	0.15	0.0186189	6.25407	0.00148138	6.27114	6.25306	0.0216854	
17	0.16	0.0190085	6.25381	0.00111257	6.27142	6.253	0.0214727	
18	0.17	0.01938	6.25359	0.000736619	6.27148	6.2529	0.0212563	
19	0.18	0.0195619	6.25337	0.00035208	6.27128	6.25271	0.0210597	
20	0.19	0.0194757	6.25314	6.28318	6.27083	6.25246	0.020899	
21	0.2	0.0189715	6.2529	6.28297	6.26962	6.25193	0.0205992	
22	0.21	0.0182509	6.25264	6.28282	6.26896	6.25167	0.0203812	
23	0.22	0.0177503	6.2524	6.28261	6.26874	6.25147	0.0202212	
24	0.23	0.0175727	6.2522	6.28239	6.2687	6.25132	0.0200723	
25	0.24	0.0177432	6.252	6.28213	6.26901	6.25122	0.0199338	
26	0.25	0.0182439	6.25182	6.28176	6.26952	6.25122	0.0195744	
27	0.26	0.0185911	6.25166	6.2814	6.26941	6.25122	0.019359	
28	0.27	0.0185897	6.25149	6.2812	6.26894	6.25117	0.0191092	
29	0.28	0.0182675	6.2513	6.28115	6.26814	6.25096	0.0189565	
30	0.29	0.0177189	6.25111	6.28118	6.26743	6.25072	0.0188081	
31	0.3	0.0171377	6.25093	6.28124	6.26675	6.25051	0.0187312	
32	0.31	0.0166214	6.25076	6.28108	6.26623	6.25038	0.0186264	
33	0.32	0.0163171	6.25064	6.28085	6.26612	6.25015	0.0184812	
34	0.33	0.0164052	6.25059	6.28058	6.26632	6.25014	0.018589	
35	0.34	0.0166646	6.25059	6.28048	6.26646	6.25014	0.0187238	
36	0.35	0.0168739	6.25059	6.28056	6.26653	6.25018	0.0188272	
37	0.36	0.0169406	6.25057	6.28077	6.26652	6.25025	0.0187861	
38	0.37	0.0167354	6.25054	6.28103	6.26584	6.25032	0.0189812	
39	0.38	0.0163287	6.25056	6.28125	6.26526	6.25027	0.0190545	
40	0.39	0.0159631	6.25058	6.28132	6.2646	6.25018	0.0191689	
41	0.4	0.0152722	6.25064	6.28144	6.26399	6.2501	0.0193811	
42	0.41	0.0147419	6.25073	6.28166	6.26366	6.25006	0.0196525	
43	0.42	0.0145747	6.25083	6.28201	6.26346	6.25011	0.0199929	
44	0.43	0.0148151	6.25098	6.28227	6.26383	6.25015	0.0201674	
45	0.44	0.0152871	6.2511	6.28258	6.26383	6.25015	0.0201674	
46	0.45	0.0159671	6.25119	6.28296	6.26515	6.25034	0.0204272	
47	0.46	0.0164647	6.25131	0.000196002	6.26554	6.2504	0.0207172	
48	0.47	0.0167061	6.25147	0.000718807	6.26569	6.2504	0.0215338	
49	0.48	0.0165215	6.25169	0.00128267	6.26543	6.2504	0.0220471	
50	0.49	0.0161201	6.25197	0.00175052	6.26497	6.25039	0.0225706	
51	0.5	0.0156505	6.25231	0.00200248	6.26459	6.25043	0.0230939	
52	0.51	0.0153028	6.25265	0.00216262	6.26421	6.25073	0.0239342	
53	0.52	0.0151662	6.25292	0.00224438	6.26414	6.25098	0.024162	
54	0.53	0.0152195	6.25315	0.00212466	6.26395	6.25127	0.0242507	
55	0.54	0.0151998	6.25335	0.00172096	6.26358	6.25157	0.0242184	
56	0.55	0.0148539	6.25355	0.00110663	6.26295	6.25184	0.0240628	
57	0.56	0.0140168	6.25378	0.000423747	6.26201	6.25208	0.0237613	
58	0.57	0.012935	6.25404	6.28286	6.26083	6.25227	0.0233103	
59	0.58	0.0119917	6.25433	6.28203	6.25843	6.25279	0.0222912	
60	0.59	0.0113723	6.25468	6.28117	6.25746	6.25312	0.0217072	
61	0.6	0.0110026	6.25503	6.28049	6.2568	6.25345	0.0211984	
62	0.61	0.0108592	6.25532	6.28	6.25649	6.25382	0.0206945	
63	0.62	0.0110793	6.25561	6.27941	6.25643	6.25424	0.0203112	
64	0.63	0.0112457	6.25588	6.27884	6.25645	6.2547	0.0199102	
65	0.64	0.0113292	6.25617	6.27822	6.25593	6.25539	0.0189995	
66	0.65	0.0112268	6.25649	6.27772	6.25548	6.25569	0.0186368	
67	0.66	0.0109631	6.25682	6.27737	6.25495	6.25602	0.0183425	
68	0.67	0.0106263	6.25716	6.27718	6.25428	6.25634	0.0182627	
69	0.68	0.0100215	6.25745	6.27729	6.25359	6.25662	0.0183808	
70	0.69	0.00924118	6.25765	6.27739	6.252	6.25694	0.0187243	
71	0.7	0.00835434	6.25783	6.2773	6.25116	6.2571	0.0187523	
72	0.71	0.00752177	6.25802	6.27708	6.25026	6.25725	0.0187841	
73	0.72	0.00694951	6.25822	6.27687	6.24956	6.25739	0.0187943	
74	0.73	0.00669171	6.2584	6.27674	6.24873	6.25767	0.0189776	
75	0.74	0.00647021	6.25854	6.27663	6.24841	6.2578	0.0191288	
76	0.75	0.00627375	6.25869	6.27668	6.24796	6.25792	0.0192886	
77	0.76	0.00602613	6.25882	6.27679	6.24732	6.25804	0.0194097	
78	0.77	0.00570076	6.25898	6.27684	6.24666	6.25813	0.0194988	
79	0.78	0.00534751	6.25914	6.27688	6.24543	6.25823	0.0197191	
80	0.79	0.00499698	6.25932	6.2768	6.24533	6.25839	0.0198078	
81	0.8	0.00485569	6.25952	6.27662	6.24563	6.25863	0.0198733	
82	0.81	0.00503339	6.25974	6.27648	6.24593	6.25885	0.0200073	
83	0.82	0.00525567	6.25998	6.27646	6.24607	6.25906	0.020162	
84	0.83	0.00517916	6.26018	6.27663	6.24545	6.25939	0.0203765	
85	0.839999	0.00467881	6.26037	6.27679	6.24481	6.25953	0.0205073	
86	0.849999	0.00398938	6.26058	6.27696	6.24427	6.25961	0.020581	
87	0.859999	0.00345322	6.26081	6.27702	6.24399	6.25972	0.0205748	
88	0.869999	0.00314872	6.26104	6.27691	6.24397	6.25988	0.0206403	
89	0.879999	0.00327754	6.2613	6.27669	6.24402	6.26003	0.020788	
90	0.889999	0.00374324	6.26156	6.27645	6.24449	6.26041	0.0208808	
91	0.899999	0.00405842	6.26178	6.27631	6.24446	6.26058	0.0209624	
92	0.909999	0.0038995	6.26195	6.27624	6.24419	6.26073	0.0210387	
93	0.919999	0.00347731	6.26208	6.27615	6.2437	6.26095	0.0210423	
94	0.929999	0.00271754	6.26222	6.2761	6.24309	6.26117	0.0210087	
95	0.939999	0.00230325	6.26229	6.27608	6.242	6.26139	0.0208219	
96	0.949999	0.00168021	6.26246	6.27594	6.24188	6.26157	0.0207408	
97	0.959999	0.00148687	6.26264	6.27571	6.24193	6.26177	0.0207599	
98	0.969999	0.00184292	6.26282	6.27549	6.24203	6.26202	0.0207116	
99	0.979999	0.0023899	6.26296	6.27524	6.24213	6.26223	0.0206496	
100	0.989999	0.00259865	6.26307	6.27504	6.24201	6.2624	0.0206118	
101	0.999999	0.00219459	6.26315	6.27489	6.241	6.26259	0.0207309	
102	1.01	0.00146471	6.26318	6.27485	6.24036	6.26257	0.0208487	
103	1.02	0.00103156	6.2632	6.27476	6.23973	6.26256	0.020809	
104	1.03	0.000652583	6.26322	6.27468	6.23936	6.26255	0.0207339	
105	1.04	0.000263614	6.26323	6.27457	6.23951	6.26288	0.0201411	
106	1.05	4.6462e-005	6.26326	6.27442	6.23999	6.26318	0.0199142	
107	1.06	0.00184487	6.26363	6.27317	6.24054	6.26342	0.0197913	
108	1.07	0.00239022	6.26381	6.27301	6.24077	6.2636	0.0197719	
109	1.08	0.00223633	6.26397	6.27298	6.24054	6.2637	0.0198163	
110	1.09	0.00138721	6.26409	6.27294	6.24002	6.2637	0.0198746	
111	1.1	0.000399511	6.2642	6.27286	6.23883	6.26354	0.0199534	
112	1.11	6.2829	6.26435	6.27272	6.23845	6.26361	0.0199046	
113	1.12	6.2827	6.26455	6.27255	6.23828	6.2638	0.0197673	
114	1.13	6.28304	6.26479	6.27243	6.23844	6.26407	0.019628	
115	1.14	0.000638305	6.26506	6.27237	6.2389	6.26438	0.0194923	
116	1.15	0.0015644	6.26536	6.27226	6.23933	6.26471	0.019338	
117	1.16	0.00203574	6.26564	6.27224	6.24005	6.2653	0.0191803	
118	1.17	0.00188208	6.26586	6.27227	6.24006	6.2655	0.0191854	
119	1.18	0.00139337	6.26608	6.27216	6.23973	6.26564	0.0192113	
120	1.19	0.000725609	6.26632	6.27204	6.23912	6.26575	0.0192426	
121	1.2	7.77226e-006	6.26659	6.27193	6.2384	6.26586	0.0191736	
122	1.21	6.28266	6.26686	6.27186	6.23761	6.2661	0.019041	
123	1.22	6.28265	6.26712	6.27167	6.23782	6.26639	0.0189987	
124	1.23	6.28316	6.26741	6.27157	6.23817	6.26672	0.0190127	
125	1.24	0.000516897	6.26767	6.27164	6.23858	6.267	0.0190483	
126	1.25	0.000802393	6.26781	6.27162	6.2391	6.26745	0.0193131	
127	1.26	0.00102861	6.26807	6.27164	6.23886	6.2676	0.0194154	
128	1.27	0.000883023	6.2683	6.27176	6.2385	6.2677	0.0195421	
129	1.28	0.000581953	6.26852	6.27184	6.23807	6.26775	0.019697	
130	1.29	0.000275686	6.26873	6.27197	6.23774	6.26782	0.0197771	
131	1.3	0.00010233	6.2689	6.27213	6.23744	6.26793	0.0198721	
132	1.31	8.07273e-005	6.26903	6.27215	6.2369	6.26814	0.0201814	
133	1.32	6.28314	6.26916	6.27212	6.2366	6.26822	0.0202393	
134	1.33	6.28286	6.26928	6.27211	6.23624	6.2682	0.0202966	
135	1.34	6.28255	6.26943	6.27199	6.23595	6.26821	0.0203011	
136	1.35	6.28234	6.2696	6.27186	6.23578	6.26832	0.0202821	
137	1.36	6.28229	6.26974	6.27173	6.23526	6.26855	0.0202506	
138	1.37	6.28223	6.26986	6.27169	6.23492	6.26864	0.0202212	
139	1.38	6.28209	6.26996	6.2715	6.23439	6.26874	0.0201326	
140	1.39	6.28188	6.27004	6.2712	6.23394	6.26889	0.0200533	
141	1.4	6.28157	6.27015	6.27078	6.2334	6.26906	0.0199345	
142	1.41	6.28121	6.27025	6.2705	6.23232	6.26931	0.0196348	
143	1.42	6.28099	6.2704	6.27015	6.23202	6.26944	0.0194029	
144	1.43	6.28093	6.2706	6.2699	6.23179	6.26964	0.0192406	
145	1.44	6.28092	6.27079	6.26984	6.23173	6.26981	0.0191434	
146	1.45	6.28106	6.27097	6.26977	6.2319	6.26995	0.0190989	
147	1.46	6.2813	6.27115	6.26964	6.23216	6.2701	0.0190567	
148	1.47	6.28161	6.27129	6.26943	6.23238	6.27046	0.018775	
149	1.48	6.28194	6.27144	6.26914	6.23234	6.27063	0.0186499	
150	1.49	6.28226	6.27164	6.26879	6.23211	6.2708	0.0185221	
151	1.5	6.28242	6.27183	6.26847	6.23192	6.27094	0.0184307	
152	1.51	6.2824	6.27202	6.2682	6.2317	6.27132	0.0181847	
153	1.52	6.28228	6.27225	6.26795	6.2317	6.27154	0.018038	
154	1.53	6.28222	6.27248	6.26773	6.23172	6.27181	0.0178495	
155	1.54	6.28227	6.27271	6.26737	6.23173	6.27211	0.0176116	
156	1.55	6.28248	6.27296	6.26697	6.23163	6.27241	0.0174316	
157	1.56	6.2827	6.27322	6.26666	6.23152	6.2727	0.0172557	
158	1.57	6.28291	6.27351	6.2664	6.23136	6.27328	0.0168972	
159	1.58	6.28298	6.27379	6.2663	6.23115	6.27357	0.0168182	
160	1.59	6.28297	6.27403	6.26628	6.23096	6.27381	0.0168465	
161	1.6	6.28296	6.27423	6.26622	6.23064	6.27403	0.0168385	
162	1.61	6.28313	6.27439	6.26602	6.23032	6.27424	0.0167339	
163	1.62	1.8855e-005	6.27459	6.26579	6.22979	6.27473	0.0163237	
164	1.63	6.2831	6.2748	6.26547	6.22958	6.2751	0.016011	
165	1.64	6.28314	6.27507	6.26517	6.22958	6.2751	0.016011	
166	1.65	0.000302566	6.27542	6.26508	6.22956	6.27593	0.0157682	
167	1.66	0.000561793	6.27561	6.26505	6.22979	6.27629	0.0158153	
168	1.67	0.000909596	6.27597	6.26519	6.22968	6.27683	0.0160766	
169	1.68	0.000863776	6.27623	6.26554	6.22926	6.27707	0.0162751	
170	1.69	0.000481648	6.27648	6.2657	6.2287	6.27724	0.01645	
171	1.7	6.28298	6.27672	6.26581	6.22815	6.27733	0.0166015	
172	1.71	6.28244	6.27696	6.26594	6.22768	6.27746	0.0166548	
173	1.72	6.28211	6.27722	6.2661	6.22717	6.27768	0.0168758	
174	1.73	6.28206	6.27734	6.26621	6.2271	6.27781	0.017121	
175	1.74	6.28208	6.2777	6.2665	6.22707	6.2779	0.0174183	
176	1.75	6.28176	6.27792	6.26675	6.22687	6.27794	0.017684	
177	1.76	6.28122	6.2781	6.26697	6.22631	6.27801	0.0179688	
178	1.77	6.28069	6.27827	6.26718	6.22489	6.27814	0.0183696	
179	1.78	6.28023	6.27838	6.26732	6.22442	6.27814	0.0185113	
